<svg width="159" height="70" viewBox="0 0 159 70" fill="none" xmlns="http://www.w3.org/2000/svg">
<rect width="159" height="70" fill="#F5F5F5"/>
<path d="M0.0554703 0.862372C0.425273 0.917842 0.979978 1.02878 1.57166 1.26916C1.57166 1.26916 3.14332 1.49104 3.80897 2.80384C4.14179 3.45099 4.16028 4.41248 4.25273 21.1461C4.25273 27.0259 4.25273 32.9243 4.25273 38.8042C5.45459 38.8042 6.65645 38.8042 7.85831 38.8042L7.95076 23.9196C8.04321 9.2569 8.04321 9.05351 8.37604 9.77462C8.57943 10.1814 9.42997 12.1783 10.299 14.2123C11.1496 16.2462 12.0001 18.2431 12.185 18.6499C12.3699 19.0567 13.2944 21.22 14.2374 23.4573C15.1989 25.6946 17.0664 30.0583 18.3977 33.1647L20.8199 38.8042H22.6504H24.481L25.1651 37.2325C29.1775 27.9135 33.1713 18.5759 37.1837 9.2569C37.1652 18.2616 37.1282 27.2478 37.1097 36.2525C37.0727 36.4559 36.9988 36.7702 36.7769 37.0476C36.0188 37.9906 34.1328 37.9351 34.1328 37.9351C34.1328 37.9351 33.6706 37.9351 33.0049 37.9536C33.0049 38.1015 33.0049 38.2679 33.0049 38.4344C33.0049 38.5638 33.0234 38.6932 33.0419 38.8042C36.9433 38.8042 40.8262 38.8042 44.7277 38.8042C44.7277 38.6747 44.7092 38.5453 44.7092 38.4159C44.7092 38.2495 44.7092 38.1015 44.7092 37.9536C44.5428 37.9536 44.2284 37.9721 43.8586 37.8981C43.8586 37.8981 42.1945 37.8796 41.3809 36.308C41.0666 35.6978 41.0481 34.4405 41.0481 17.9473V0.252197H39.1251H37.2022L36.4626 2.04574C35.6675 3.95023 34.8539 5.83622 34.0588 7.74071C30.3423 16.505 26.5703 25.2324 22.7244 33.9412C22.1512 32.7394 21.2822 30.8904 20.2467 28.5976C17.6211 22.8102 16.0125 18.7054 14.0525 14.2492C12.6103 10.958 10.5579 6.22451 8.09868 0.363138C5.39912 0.344648 2.69956 0.326158 0 0.307668C0.0184901 0.492569 0.0369802 0.677471 0.0554703 0.862372Z" fill="white"/>
<path d="M88.6235 0.141288C88.6235 0.344679 88.6235 0.529581 88.6235 0.732972C88.9933 0.732972 89.5296 0.732972 90.1582 0.880893C90.7684 1.01032 91.4155 1.15825 91.9148 1.60201C92.525 2.13822 92.7099 2.91481 92.7099 3.3031C92.7468 9.21995 92.7653 15.1368 92.8023 21.0536L92.8948 38.8042H102.251C110.608 38.8042 111.736 38.7672 113.031 38.4714C116.932 37.5469 119.521 35.0877 120.501 31.3157C120.907 29.6885 120.926 26.3973 120.501 25.066C119.724 22.5513 117.616 20.0367 115.342 18.8348C114.75 18.5205 114.269 18.1877 114.269 18.0952C114.288 17.9843 114.658 17.633 115.12 17.3001C116.192 16.5051 117.468 14.7855 117.967 13.4172C118.226 12.7701 118.411 11.7531 118.467 10.7546C118.781 5.59588 115.933 1.87936 110.701 0.622032C110.682 0.622032 110.368 0.548071 110.054 0.47411C106.448 -0.191535 95.1136 -0.00663354 88.6235 0.141288ZM110.479 3.82083C112.143 4.37553 113.345 5.374 114.084 6.79774C114.713 8.01809 114.732 8.14752 114.713 10.0335C114.713 11.6052 114.639 12.1969 114.306 13.0289C113.77 14.3972 112.531 15.636 111.163 16.1907C110.146 16.5975 109.85 16.616 103.453 16.7085C99.7916 16.7639 96.7407 16.7824 96.6667 16.7454C96.5743 16.7085 96.5188 13.6946 96.5188 10.0335V3.37706L103.046 3.43253C108.5 3.50649 109.702 3.56196 110.479 3.82083ZM105.764 20.0922C110.608 20.1661 111.311 20.2771 113.326 21.3125C116.673 23.0321 118.004 27.3033 116.47 31.4266C116.007 32.6655 114.621 34.1632 113.437 34.7179C111.773 35.5129 111.145 35.5684 103.693 35.5684H96.5188V27.821C96.5188 22.8842 96.5928 20.0367 96.7037 19.9997C96.7962 19.9627 97.8686 19.9627 99.052 19.9812C100.254 20.0182 103.268 20.0552 105.764 20.0922Z" fill="white"/>
<path d="M130.669 0.141357C130.706 0.326259 130.743 0.51116 130.78 0.677572C131.464 0.696062 132.056 0.770023 132.5 0.843983C133.757 1.02888 134.053 1.23228 134.238 1.47265C134.423 1.71302 134.478 1.99037 134.497 2.19376C134.718 4.32013 133.443 6.61291 133.443 6.61291C132.777 8.25853 131.668 11.106 130.965 12.9365C130.244 14.7671 129.134 17.633 128.469 19.3156C127.803 20.9982 125.973 25.6947 124.382 29.7626C123.717 31.4637 122.737 34.1262 121.221 37.7688C121.036 38.2126 120.888 38.5824 120.777 38.8227C122.09 38.8227 123.421 38.8227 124.734 38.8227C125.196 37.7318 125.64 36.6224 126.084 35.4945C126.768 33.7749 127.415 32.0738 128.006 30.4097L128.82 28.2834L137.973 28.2279C141.079 28.2279 144.185 28.2464 147.292 28.2464C148.586 31.8704 149.511 34.533 149.769 35.3281C149.825 35.513 149.991 35.9938 149.88 36.5669C149.862 36.6594 149.825 36.8443 149.695 37.0292C149.64 37.1217 149.4 37.4915 148.642 37.7873C147.939 38.0646 147.273 38.1016 146.756 38.0831C146.737 38.3235 146.737 38.5639 146.719 38.8043L152.413 38.8597C154.299 38.8782 156.204 38.8782 158.09 38.8967C158.09 38.7488 158.09 38.5824 158.09 38.4345C158.053 38.305 158.034 38.1941 157.998 38.0646C157.924 38.0462 157.72 38.0277 157.498 37.9722C157.498 37.9722 155.316 37.7133 154.133 35.439C153.893 34.9768 143.298 8.14759 140.876 1.87943C140.654 1.30624 140.45 0.714552 140.228 0.141357C138.657 0.141357 137.104 0.141357 135.532 0.141357C133.905 0.141357 132.296 0.141357 130.669 0.141357ZM139.637 8.05514C140.432 10.126 142.151 14.6746 143.483 18.1877C144.814 21.7009 145.923 24.6408 145.942 24.7517C145.96 24.8812 143.224 24.9551 138.084 24.9921C133.517 25.0106 130.17 24.9551 130.17 24.8627C130.17 24.7702 130.669 23.4205 131.261 21.8673C133.498 16.0059 137.529 5.44803 137.843 4.54201C137.88 4.43107 137.991 4.32013 138.084 4.32013C138.158 4.32013 138.86 6.00273 139.637 8.05514Z" fill="white"/>
<path d="M76.4571 12.5297C72.944 13.1953 70.7436 14.8594 69.8931 17.485C68.9501 20.3695 69.8191 23.106 72.1489 24.5852C73.4987 25.4543 75.3847 26.0275 78.9718 26.6561C80.6544 26.952 82.5034 27.3218 83.0766 27.4882C86.8116 28.5421 87.8655 31.6855 85.3324 34.1631C84.0381 35.439 82.7807 35.8642 80.1921 35.9937C78.6389 36.0676 77.9178 36.0122 76.9748 35.7533C76.1428 35.5314 75.3662 35.1801 74.682 34.7178C74.0904 34.3111 73.4247 33.405 72.0934 31.6115C71.8346 31.2602 71.6312 30.9828 71.5017 30.7979C70.5957 31.1862 69.6897 31.5745 68.7837 31.9443C68.8946 32.3141 69.098 32.8688 69.4308 33.479C71.4833 37.251 75.8284 38.4529 76.5865 38.6008C80.5064 39.3959 85.3509 38.4529 87.6067 36.4744C90.5836 33.8488 90.8609 29.4297 88.1983 26.8226C86.5527 25.1954 85.055 24.6407 79.7299 23.6792C76.0318 23.0136 74.682 22.5883 73.8315 21.7932C72.1489 20.2401 72.7961 17.3001 75.0703 16.0613C77.3816 14.804 81.4679 14.8409 83.5758 16.1352C84.2969 16.579 85.3139 17.7809 86.1829 19.2046C86.4233 19.5929 86.6082 19.9442 86.7191 20.1846C87.1629 20.0367 87.6436 19.8518 88.1244 19.6669C88.5866 19.482 89.0304 19.2786 89.4557 19.0937C89.3077 18.6314 89.0859 18.0397 88.7161 17.3741C88.5127 16.9858 87.995 16.0428 87.2184 15.2292C86.2014 14.1568 84.8886 13.3617 83.2615 12.807C81.8747 12.3078 78.3431 12.1599 76.4571 12.5297Z" fill="white"/>
<path d="M44.9306 13.1215C44.8381 17.6885 44.6532 28.6717 45.2819 31.889C45.3559 32.2588 45.4483 32.6286 45.4483 32.6286C45.6702 33.4236 46.4098 36.0677 48.795 37.7134C50.8474 39.1371 53.0663 39.0631 54.2126 39.0261C56.8752 38.9337 58.7058 37.8428 60.111 37.0107C60.8321 36.5854 61.3498 36.1417 61.7936 35.5685C62.2004 35.0323 62.4038 34.5146 62.5147 34.1817C62.5147 34.9213 62.5147 35.6609 62.4962 36.4005C62.4962 37.1032 62.4962 37.8058 62.4962 38.5084C63.5687 38.5084 64.6596 38.5084 65.732 38.5084V25.8057V13.0845C64.6781 13.103 63.6241 13.103 62.5702 13.1215C62.5517 14.2309 62.5147 16.3202 62.4962 18.9458C62.4408 25.6023 62.3853 29.2264 60.9246 32.1478C60.1295 33.738 58.9831 34.9213 57.5409 35.624C56.5979 36.0862 56.2835 36.1417 54.6194 36.1417C52.9183 36.1417 52.678 36.0862 51.6795 35.587C50.4222 34.9398 49.6086 34.0153 48.9614 32.4437C48.5362 31.4082 48.5362 31.2973 48.4437 22.2556L48.3513 13.1215C47.2049 13.0845 46.0585 13.103 44.9306 13.1215Z" fill="white"/>
<path d="M4.25244 47.0509V51.1187C4.65922 51.1187 5.04752 51.1187 5.4543 51.1187C5.43581 49.1218 5.43581 47.1248 5.41732 45.1279C6.13844 47.1248 6.87804 49.1218 7.59916 51.1187C8.02443 51.1187 8.4497 51.1187 8.87498 51.1187C9.59609 49.1587 10.3172 47.1803 11.0568 45.2203C11.0568 46.1448 11.0568 47.0878 11.0568 48.0123L11.0938 51.1187C11.5006 51.1187 11.8889 51.1187 12.2957 51.1187C12.2957 49.7504 12.2957 48.4006 12.2957 47.0324C12.2957 45.6641 12.2957 44.2958 12.2957 42.946C11.9813 42.946 11.6855 42.946 11.3711 42.946C11.0753 42.946 10.798 42.946 10.5021 42.946C9.72553 45.0354 8.94894 47.1248 8.15386 49.2142C7.48822 47.1248 6.82257 45.0354 6.15693 42.946C5.8241 42.946 5.49128 42.9645 5.15846 42.9645H4.25244V47.0509Z" fill="white"/>
<path d="M27.8281 43.0569C27.4952 43.4267 27.1624 43.7965 26.8296 44.1663C27.0885 44.1663 27.3288 44.1663 27.5877 44.1663C28.013 43.815 28.4197 43.4822 28.845 43.1308C28.5122 43.1124 28.1794 43.0939 27.8281 43.0569Z" fill="white"/>
<path d="M13.479 44.98C13.4975 46.2558 13.4975 47.1803 13.4975 47.6611C13.4975 48.8074 13.516 49.9538 14.0522 50.5085C14.3665 50.8414 14.7548 50.9893 14.7548 50.9893C15.0137 51.0817 15.2356 51.1002 15.365 51.1002C16.1601 51.1372 16.9182 50.7304 17.177 50.5825C17.177 50.7674 17.177 50.9523 17.1585 51.1187C17.5468 51.1187 17.9351 51.1187 18.3234 51.1187C18.3234 50.0278 18.3234 48.9554 18.3419 47.8644L18.2864 44.98C17.9351 44.98 17.5838 44.98 17.214 44.98C17.1585 46.4407 17.1216 47.9014 17.0661 49.3621C17.0476 49.4361 17.0106 49.5655 16.8997 49.6765C16.8812 49.7135 16.7887 49.8059 16.6223 49.9169C16.3265 50.1018 16.0306 50.1018 15.7903 50.1202C15.5499 50.1202 15.3835 50.1387 15.1986 50.0463C14.9952 49.9538 14.8843 49.8059 14.8658 49.7689C14.8658 49.7689 14.7548 49.621 14.6994 49.3991C14.6254 49.0663 14.5884 47.3467 14.6069 44.98C14.2371 44.98 13.8488 44.98 13.479 44.98Z" fill="white"/>
<path d="M20.0065 45.3681C19.8031 45.4976 19.3963 45.7749 19.2484 46.3111C19.2299 46.3851 19.1005 46.9028 19.3778 47.3836C19.5072 47.6239 19.7661 47.8828 21.4302 48.493C22.4102 48.8443 22.8724 48.9552 22.9279 49.288C22.9649 49.5284 22.7615 49.7318 22.6875 49.8058C22.1143 50.3974 20.8015 50.2495 20.4502 49.6394C20.3948 49.5284 20.3578 49.4175 20.3578 49.3435C19.988 49.3435 19.6182 49.3435 19.2669 49.3435C19.3038 49.5469 19.3963 49.8427 19.5997 50.1386C20.2653 51.1186 21.5412 51.1186 21.6151 51.1186C22.7245 51.1186 23.9449 50.342 24.0373 49.3805C24.0743 48.9552 23.8894 48.6039 23.8524 48.5484C23.723 48.3266 23.4826 48.0492 21.911 47.5315C21.0419 47.2356 20.4687 47.1062 20.3948 46.7364C20.3763 46.6439 20.4133 46.5515 20.4133 46.5145C20.5427 46.1077 21.1529 45.9228 21.5781 45.9413C22.2992 45.9783 22.7245 46.6255 22.7615 46.6994C23.0943 46.6994 23.4456 46.6994 23.7785 46.6994C23.7415 46.496 23.5566 45.7749 22.8909 45.3311C22.3547 44.9798 21.8185 44.9983 21.4117 45.0168C21.0604 44.9983 20.5242 45.0168 20.0065 45.3681Z" fill="white"/>
<path d="M25.9606 45.2943C24.9252 45.849 24.6293 46.8659 24.5554 47.1988C24.315 48.0308 24.4814 48.7704 24.6293 49.1587C24.7403 49.473 24.9437 50.1017 25.5354 50.564C26.5153 51.3221 27.8651 51.1741 28.6602 50.7858C28.8266 50.6934 29.2149 50.5085 29.5662 50.0647C29.7881 49.7689 29.9175 49.4915 29.973 49.3066C29.6032 49.3066 29.2519 49.3066 28.8821 49.3066C28.8081 49.4361 28.6602 49.6764 28.4013 49.8613C27.9206 50.1942 27.4029 50.1572 27.2365 50.1387C27.1255 50.1202 26.275 50.0278 25.8312 49.2881C25.6093 48.9368 25.5908 48.5855 25.5908 48.4006C27.07 48.4006 28.5493 48.3821 30.0285 48.3821C30.0654 48.0493 30.047 47.772 30.0285 47.5686C29.9175 46.5516 29.4553 45.9414 29.3074 45.7935C29.2334 45.7195 29.067 45.5346 28.7896 45.3682C28.1055 44.9984 26.9776 44.7765 25.9606 45.2943ZM28.8081 47.1988C28.8266 47.2912 28.8451 47.3652 28.8451 47.4206C27.7912 47.4206 26.7372 47.4021 25.7018 47.4021C25.7018 47.3467 25.7203 47.2727 25.7572 47.1988C25.9052 46.718 26.4229 45.9969 27.2734 45.9784C28.1055 45.9784 28.6787 46.6441 28.8081 47.1988Z" fill="white"/>
<path d="M8.39496 52.3759C8.37647 53.2265 8.37647 54.077 8.35798 54.9276C8.17308 54.8351 7.89573 54.7057 7.54441 54.5947C7.23008 54.5023 6.76783 54.3729 6.17614 54.4468C6.02822 54.4653 5.56597 54.5208 5.12221 54.7981C4.34562 55.2789 3.90186 56.2219 3.90186 57.4237C3.90186 58.1633 4.06827 58.7735 4.3826 59.2727C4.64146 59.6795 4.91881 59.9014 4.97428 59.9384C5.39956 60.2712 5.80634 60.3637 6.02822 60.4191C6.19463 60.4561 7.43347 60.715 8.22855 60.0123C8.26553 59.9754 8.30251 59.9569 8.321 59.9199C8.33949 60.1048 8.35798 60.2712 8.37647 60.4561C8.72778 60.4561 9.09759 60.4561 9.4489 60.4561V56.4068V52.3574H9.02363C8.82024 52.3759 8.61684 52.3759 8.39496 52.3759ZM7.74781 55.7781C7.98818 55.963 8.09912 56.1664 8.11761 56.2034C8.24704 56.4437 8.26553 56.7581 8.26553 57.4237C8.26553 58.4407 8.19157 58.6995 7.82177 59.1063C7.52592 59.4207 7.17461 59.5871 6.80481 59.5871C5.75087 59.5686 5.21466 58.829 5.21466 57.3683C5.21466 56.9245 5.25164 56.6471 5.34409 56.4253C5.38107 56.3328 5.5105 56.0924 5.75087 55.8705C5.86181 55.7596 6.21312 55.4638 6.74934 55.4453C7.26706 55.4268 7.63687 55.6856 7.74781 55.7781Z" fill="white"/>
<path d="M25.2212 52.3944C25.2212 55.094 25.2397 57.812 25.2397 60.5116C25.7574 60.5116 26.2936 60.4931 26.8113 60.4931C29.9917 60.6225 31.249 59.9384 31.249 58.1079C31.249 57.6456 31.212 57.3683 31.1011 57.1464C31.0086 56.9615 30.8977 56.832 30.7867 56.7211C30.5648 56.4807 30.343 56.3143 30.1766 56.2219C30.2875 56.0739 30.4539 55.8521 30.5833 55.5377C30.6388 55.4083 30.9901 54.4283 30.4724 53.5038C30.1581 52.9491 29.6773 52.6902 29.5294 52.5978C29.0117 52.3204 28.5864 52.3759 27.3291 52.3574C26.7744 52.3574 26.0717 52.3574 25.2212 52.3944ZM29.4369 54.077C29.5849 54.2989 29.6773 54.5762 29.6588 54.7981C29.6403 55.2604 29.2151 55.6857 28.6234 55.8521C27.9208 55.8336 27.2366 55.8151 26.534 55.8151C26.534 55.0385 26.5155 54.2619 26.5155 53.4853C27.1257 53.5038 27.477 53.5038 27.8468 53.5038C28.4755 53.5223 28.8268 53.5223 29.1411 53.7627C29.3075 53.8921 29.4 54.0215 29.4369 54.077ZM29.5479 57.2018C29.7883 57.4237 29.9547 57.812 29.9547 58.1263C29.9547 59.0693 29.363 59.4207 27.7913 59.4207H26.4415V58.1263V56.832H27.7913C28.9007 56.832 29.2151 56.906 29.5479 57.2018Z" fill="white"/>
<path d="M60.9446 56.4067C60.4454 57.7935 59.9461 59.1617 59.4839 60.5115C59.8907 60.5115 60.3159 60.5115 60.7227 60.5115C60.9446 59.9198 61.185 59.3282 61.4069 58.7365C62.5163 58.718 63.6257 58.6995 64.7166 58.681C64.9939 59.2912 65.2713 59.9198 65.5302 60.53C65.9739 60.53 66.3992 60.53 66.843 60.53C66.7875 60.3636 66.3437 59.1987 66.2883 59.0508C66.1588 58.718 65.4562 56.832 65.2713 56.2958C64.9385 55.4082 64.4577 54.0954 63.8291 52.4128C63.3668 52.4128 62.9046 52.4128 62.4238 52.4128C61.9431 53.7072 61.4438 55.0384 60.9446 56.4067ZM64.4392 57.5161C63.5702 57.5161 62.6827 57.5161 61.8136 57.5161C62.2574 56.4067 62.7197 55.3158 63.1634 54.2064C63.5887 55.3158 64.014 56.4067 64.4392 57.5161Z" fill="white"/>
<path d="M71.3725 54.4284H70.4664C70.0597 54.4284 69.3755 54.4654 68.7284 54.8722C68.5804 54.9647 68.4695 55.0571 68.3586 55.1496C68.3401 54.8907 68.3216 54.6133 68.2846 54.3545C67.9703 54.3545 67.6559 54.3545 67.3231 54.3545C67.3046 56.4069 67.3046 58.4593 67.2861 60.5117C67.6374 60.5117 67.9703 60.5117 68.3216 60.5117C68.3401 59.957 68.3586 59.3653 68.3586 58.7736C68.3586 58.4963 68.2476 57.5348 68.3031 56.5733C68.3216 56.4439 68.3216 56.2405 68.451 56.0186C68.6729 55.6673 69.0427 55.5379 69.3016 55.4454C69.5604 55.353 69.8378 55.353 70.374 55.316C70.5404 55.316 70.7623 55.2975 71.0211 55.3899C71.0396 55.3899 71.0396 55.3899 71.0396 55.3899C71.2985 55.4824 71.3355 55.8522 71.3355 57.7197C71.3355 59.3098 71.354 59.7721 71.5204 60.0125C71.6128 60.1419 71.7792 60.2344 71.7792 60.2344C72.1675 60.4932 72.5928 60.4932 72.8517 60.4932C73.0366 60.4932 73.3139 60.4747 73.6467 60.3638C73.6283 60.0864 73.6098 59.8091 73.5913 59.5132C73.5358 59.5502 73.3879 59.6242 73.2215 59.6242C73.2215 59.6242 73.0366 59.6242 72.8702 59.4947C72.5373 59.2359 72.4449 58.5887 72.4819 57.1465C72.4819 56.5363 72.5004 55.9261 72.5004 55.316C72.8702 55.316 73.2215 55.2975 73.5913 55.2975C73.5913 55.0201 73.5913 54.7428 73.5913 54.4654C73.4064 54.4654 73.24 54.4469 73.0551 54.4469C72.8332 54.4284 72.6298 54.4284 72.4079 54.41C72.4079 53.9477 72.4079 53.4854 72.4079 53.0232C72.0751 53.0232 71.7238 53.0232 71.3909 53.0232C71.4094 53.5039 71.3909 53.9662 71.3725 54.4284Z" fill="white"/>
<path d="M39.7174 54.5209C38.4785 54.9831 38.1827 56.2774 38.1642 56.3699C38.5525 56.3699 38.9408 56.3514 39.3291 56.3514C39.3291 56.2405 39.3291 56.0925 39.403 55.9261C39.6249 55.4454 40.2905 55.2235 40.8268 55.3714C41.0671 55.4269 41.2705 55.5748 41.4554 55.7782C41.5479 55.8892 41.8067 56.2035 41.7328 56.4623C41.6588 56.7582 41.1966 56.8137 40.6604 56.9431C39.6804 57.1835 38.46 57.4793 37.9978 58.2744C37.9608 58.3299 37.7019 58.8106 37.8314 59.3838C37.9978 60.0679 38.6449 60.3638 38.7559 60.4192C38.9962 60.5302 39.3291 60.5302 40.0317 60.5302C40.5309 60.5302 40.9007 60.5117 41.3445 60.3638C41.6588 60.2528 41.8807 60.1234 42.0471 60.0125C42.0471 60.1789 42.0471 60.3638 42.0656 60.5302C42.3799 60.5302 42.6943 60.5302 43.0271 60.5302C42.9901 59.2729 42.9531 58.0155 42.9162 56.7582C42.8977 55.8522 42.4169 55.0571 41.6588 54.6503C40.7528 54.1511 39.8653 54.4654 39.7174 54.5209ZM41.7883 58.3299C41.7883 59.2913 40.6049 59.957 39.6249 59.5872C38.2566 59.0695 39.366 57.8121 41.1966 57.7936C41.7328 57.7752 41.7883 57.8306 41.7883 58.3299Z" fill="white"/>
<path d="M49.3125 54.3545C49.9597 55.3715 50.6068 56.3699 51.254 57.3869C50.6068 58.4223 49.9597 59.4763 49.3125 60.5117C49.6453 60.5117 49.9781 60.5117 50.311 60.5117C50.8657 59.8091 51.4019 59.088 51.9566 58.3853C52.4743 59.088 52.992 59.8091 53.4913 60.5117C53.8611 60.5117 54.2309 60.5117 54.6007 60.5117C53.9905 59.4578 53.3803 58.4038 52.7702 57.3684C53.3803 56.3699 53.9905 55.3715 54.6007 54.373C54.2494 54.373 53.8981 54.373 53.5467 54.373C53.0105 55.0756 52.4743 55.7597 51.9381 56.4624C51.4204 55.7782 50.9211 55.0756 50.4034 54.3915C50.0521 54.373 49.6823 54.373 49.3125 54.3545Z" fill="white"/>
<path d="M54.4355 56.8877C54.4355 57.2205 54.4355 57.5718 54.4355 57.9047C56.0442 57.9231 57.6528 57.9231 59.28 57.9416C59.28 57.6088 59.2615 57.2575 59.2615 56.9247C57.6528 56.9062 56.0442 56.9062 54.4355 56.8877Z" fill="white"/>
<path d="M12.4623 64.0617C11.168 64.6164 10.8352 66.1511 10.8167 66.2805C10.5578 67.8892 11.2789 69.239 12.6657 69.7382C14.1449 70.2929 15.6611 69.6827 16.3083 68.259C16.9739 66.7798 16.3083 64.8013 15.0879 64.1542C14.5332 63.8583 13.8491 63.8398 13.7566 63.8398C13.5532 63.8398 12.9985 63.8398 12.4623 64.0617ZM14.5332 65.0602C14.5887 65.0972 14.8106 65.2451 15.0509 65.6149C15.1619 65.7998 15.5502 66.4285 15.4392 67.1496C15.2913 68.0926 14.3298 69.0171 13.4423 68.8877C12.8876 68.7952 12.5548 68.333 12.4068 68.1296C11.8521 67.3715 11.7042 66.1141 12.4068 65.3745C12.4438 65.3375 12.98 64.7828 13.7381 64.8013C13.8491 64.8198 14.1819 64.8383 14.5332 65.0602Z" fill="white"/>
<path d="M17.2705 63.8398C17.2705 65.8923 17.2705 67.9262 17.289 69.9786C17.6588 69.9786 18.0286 69.9786 18.4169 69.9786C18.3614 69.2759 18.3429 68.4994 18.3429 67.7043C18.3429 66.9832 18.3614 66.3175 18.4169 65.6704C18.4724 65.5594 18.6018 65.393 18.8052 65.2451C19.138 65.0047 19.4708 65.0047 19.6003 65.0047C20.007 64.9862 20.3029 65.1526 20.4508 65.2266C20.4508 64.9493 20.4508 64.6904 20.4693 64.413C20.3399 64.3206 19.9886 64.1172 19.5078 64.1357C18.7867 64.1727 18.3614 64.6719 18.2875 64.7644C18.306 64.45 18.306 64.1357 18.3244 63.8398C17.9546 63.8398 17.6218 63.8398 17.2705 63.8398Z" fill="white"/>
<path d="M32.0993 45.2943C31.0639 45.849 30.768 46.8659 30.6941 47.1988C30.4537 48.0308 30.6201 48.7704 30.768 49.1587C30.879 49.473 31.0824 50.1017 31.674 50.564C32.654 51.3221 34.0038 51.1741 34.7989 50.7858C34.9653 50.6934 35.3536 50.5085 35.7049 50.0647C35.9268 49.7689 36.0562 49.4915 36.1117 49.3066C35.7419 49.3066 35.3906 49.3066 35.0208 49.3066C34.9468 49.4361 34.7989 49.6764 34.54 49.8613C34.0593 50.1942 33.5415 50.1572 33.3751 50.1387C33.2642 50.1202 32.4136 50.0278 31.9699 49.2881C31.748 48.9368 31.7295 48.5855 31.7295 48.4006C33.2087 48.4006 34.6879 48.3821 36.1671 48.3821C36.2041 48.0493 36.1856 47.772 36.1671 47.5686C36.0562 46.5516 35.5939 45.9414 35.446 45.7935C35.3721 45.7195 35.2057 45.5346 34.9283 45.3682C34.2442 44.9984 33.1163 44.7765 32.0993 45.2943ZM34.9468 47.1988C34.9653 47.2912 34.9838 47.3652 34.9838 47.4206C33.9298 47.4206 32.8759 47.4021 31.8404 47.4021C31.8404 47.3467 31.8589 47.2727 31.8959 47.1988C32.0438 46.718 32.5616 45.9969 33.4121 45.9784C34.2442 45.9784 34.8174 46.6441 34.9468 47.1988Z" fill="white"/>
<path d="M11.445 54.7428C10.4096 55.2975 10.1137 56.3144 10.0398 56.6473C9.79939 57.4793 9.9658 58.2189 10.1137 58.6072C10.2247 58.9216 10.4281 59.5502 11.0197 60.0125C11.9997 60.7706 13.3495 60.6227 14.1446 60.2344C14.311 60.1419 14.6993 59.957 15.0506 59.5132C15.2725 59.2174 15.4019 58.94 15.4574 58.7551C15.0876 58.7551 14.7363 58.7551 14.3665 58.7551C14.2925 58.8846 14.1446 59.1249 13.8857 59.3099C13.405 59.6427 12.8872 59.6057 12.7208 59.5872C12.6099 59.5687 11.7593 59.4763 11.3156 58.7367C11.0937 58.3853 11.0752 58.034 11.0752 57.8491C12.5544 57.8491 14.0336 57.8306 15.5128 57.8306C15.5498 57.4978 15.5313 57.2205 15.5128 57.0171C15.4019 56.0001 14.9397 55.3899 14.7917 55.242C14.7178 55.1681 14.5514 54.9832 14.274 54.8167C13.5899 54.4469 12.462 54.2066 11.445 54.7428ZM14.2925 56.6288C14.311 56.7212 14.3295 56.7952 14.3295 56.8507C13.2755 56.8507 12.2216 56.8322 11.1862 56.8322C11.1862 56.7767 11.2046 56.7027 11.2416 56.6288C11.3895 56.148 11.9073 55.4269 12.7578 55.4084C13.5899 55.4084 14.1631 56.0926 14.2925 56.6288Z" fill="white"/>
<path d="M33.2458 54.7242C32.2103 55.2789 31.9145 56.2959 31.8405 56.6287C31.6002 57.4608 31.7666 58.2004 31.9145 58.5887C32.0254 58.903 32.2288 59.5317 32.8205 59.9939C33.8005 60.752 35.1503 60.6041 35.9454 60.2158C36.1118 60.1234 36.5001 59.9385 36.8514 59.4947C37.0733 59.1988 37.2027 58.9215 37.2582 58.7366C36.8884 58.7366 36.537 58.7366 36.1672 58.7366C36.0933 58.866 35.9454 59.1064 35.6865 59.2913C35.2058 59.6241 34.688 59.5871 34.5216 59.5686C34.4107 59.5502 33.5601 59.4577 33.1164 58.7181C32.8945 58.3668 32.876 58.0155 32.876 57.8306C34.3552 57.8306 35.8344 57.8121 37.3136 57.8121C37.3506 57.4793 37.3321 57.2019 37.3136 56.9985C37.2027 55.9816 36.7404 55.3714 36.5925 55.2235C36.5185 55.1495 36.3521 54.9646 36.0748 54.7982C35.3907 54.4284 34.2443 54.188 33.2458 54.7242ZM36.0933 56.6102C36.1118 56.7027 36.1303 56.7766 36.1303 56.8321C35.0763 56.8321 34.0224 56.8136 32.9869 56.8136C32.9869 56.7581 33.0054 56.6842 33.0424 56.6102C33.1903 56.1295 33.708 55.4084 34.5586 55.3899C35.3722 55.3899 35.9454 56.074 36.0933 56.6102Z" fill="white"/>
<path d="M16.881 54.7426C16.6776 54.8721 16.2708 55.1494 16.1229 55.6856C16.1044 55.7596 15.975 56.2773 16.2523 56.7581C16.3817 56.9984 16.6406 57.2573 18.3047 57.8675C19.2847 58.2188 19.747 58.3297 19.8024 58.6625C19.8394 58.9029 19.636 59.1063 19.5621 59.1803C18.9889 59.772 17.6761 59.624 17.3247 59.0139C17.2693 58.9029 17.2323 58.792 17.2323 58.718C16.8625 58.718 16.4927 58.718 16.1414 58.718C16.1784 58.9214 16.2708 59.2173 16.4742 59.5131C17.1398 60.4931 18.4157 60.4931 18.4896 60.4931C19.599 60.4931 20.8194 59.7165 20.9118 58.755C20.9488 58.3297 20.7639 57.9784 20.7269 57.9229C20.5975 57.7011 20.3571 57.4237 18.7855 56.906C17.9164 56.6101 17.3432 56.4807 17.2693 56.1109C17.2508 56.0185 17.2878 55.926 17.2878 55.889C17.4172 55.4822 18.0274 55.2973 18.4526 55.3158C19.1738 55.3528 19.599 56 19.636 56.0739C19.9688 56.0739 20.3201 56.0739 20.653 56.0739C20.616 55.8705 20.4311 55.1494 19.7654 54.7057C19.2292 54.3543 18.693 54.3728 18.2862 54.3913C17.9349 54.3728 17.3987 54.3913 16.881 54.7426Z" fill="white"/>
<path d="M74.9225 54.7426C74.7191 54.8721 74.3123 55.1494 74.1644 55.6856C74.1459 55.7596 74.0165 56.2773 74.2938 56.7581C74.4232 56.9984 74.6821 57.2573 76.3462 57.8675C77.3262 58.2188 77.7885 58.3297 77.8439 58.6625C77.8809 58.9029 77.6775 59.1063 77.6036 59.1803C77.0304 59.772 75.7176 59.624 75.3663 59.0139C75.3108 58.9029 75.2738 58.792 75.2738 58.718C74.904 58.718 74.5342 58.718 74.1829 58.718C74.2199 58.9214 74.3123 59.2173 74.5157 59.5131C75.1813 60.4931 76.4572 60.4931 76.5311 60.4931C77.6405 60.4931 78.8609 59.7165 78.9533 58.755C78.9903 58.3297 78.8054 57.9784 78.7684 57.9229C78.639 57.7011 78.3986 57.4237 76.827 56.906C75.9579 56.6101 75.3847 56.4807 75.3108 56.1109C75.2923 56.0185 75.3293 55.926 75.3293 55.889C75.4587 55.4822 76.0689 55.2973 76.4942 55.3158C77.2153 55.3528 77.6405 56 77.6775 56.0739C78.0103 56.0739 78.3617 56.0739 78.6945 56.0739C78.6575 55.8705 78.4726 55.1494 77.8069 54.7057C77.2707 54.3543 76.7345 54.3728 76.3277 54.3913C75.9764 54.3728 75.4402 54.3913 74.9225 54.7426Z" fill="white"/>
<path d="M43.8584 54.3728C43.8769 55.6486 43.8769 56.5731 43.8769 57.0539C43.8769 58.2003 43.8954 59.3467 44.4316 59.9014C44.7459 60.2342 45.1342 60.3821 45.1342 60.3821C45.3931 60.4746 45.615 60.493 45.7444 60.493C46.5395 60.53 47.2976 60.1232 47.5564 59.9753C47.5564 60.1602 47.5564 60.3451 47.5379 60.5115C47.9262 60.5115 48.3145 60.5115 48.7028 60.5115C48.7028 59.4206 48.7028 58.3482 48.7213 57.2573L48.6658 54.3728C48.3145 54.3728 47.9632 54.3728 47.5934 54.3728C47.5379 55.8335 47.501 57.2942 47.4455 58.755C47.427 58.8289 47.39 58.9584 47.2791 59.0693C47.2606 59.1063 47.1681 59.1987 47.0017 59.3097C46.7059 59.4946 46.41 59.4946 46.1697 59.5131C45.9293 59.5131 45.7629 59.5316 45.578 59.4391C45.3746 59.3467 45.2636 59.1987 45.2452 59.1617C45.2452 59.1617 45.1342 59.0138 45.0787 58.7919C45.0048 58.4591 44.9678 56.7395 44.9863 54.3728C44.635 54.3728 44.2467 54.3728 43.8584 54.3728Z" fill="white"/>
<path d="M44.3203 63.8213C44.9675 64.8382 45.6146 65.8367 46.2618 66.8537C45.6146 67.8891 44.9675 68.9431 44.3203 69.9785C44.6531 69.9785 44.986 69.9785 45.3188 69.9785C45.8735 69.2759 46.4097 68.5548 46.9644 67.8521C47.4821 68.5548 47.9998 69.2759 48.4991 69.9785C48.8689 69.9785 49.2387 69.9785 49.6085 69.9785C48.9983 68.9246 48.3881 67.8706 47.778 66.8352C48.3881 65.8367 48.9983 64.8382 49.6085 63.8398C49.2572 63.8398 48.9059 63.8398 48.5546 63.8398C48.0183 64.5424 47.4821 65.2265 46.9459 65.9292C46.4282 65.245 45.929 64.5424 45.4112 63.8583C45.0784 63.8398 44.7086 63.8213 44.3203 63.8213Z" fill="white"/>
<path d="M38.793 63.8213C38.8115 65.0971 38.8115 66.0216 38.8115 66.5024C38.8115 67.6487 38.8299 68.7951 39.3662 69.3498C39.6805 69.6827 40.0688 69.8306 40.0688 69.8306C40.3276 69.923 40.5495 69.9415 40.679 69.9415C41.474 69.9785 42.2321 69.5717 42.491 69.4238C42.491 69.6087 42.491 69.7936 42.4725 69.96C42.8608 69.96 43.2491 69.96 43.6374 69.96C43.6374 68.8691 43.6374 67.7967 43.6559 66.7058L43.6004 63.8213C43.2491 63.8213 42.8978 63.8213 42.528 63.8213C42.4725 65.282 42.4355 66.7427 42.3801 68.2035C42.3616 68.2774 42.3246 68.4068 42.2136 68.5178C42.1952 68.5548 42.1027 68.6472 41.9363 68.7582C41.6405 68.9431 41.3446 68.9431 41.1042 68.9616C40.8639 68.9616 40.6975 68.98 40.5126 68.8876C40.3092 68.7951 40.1982 68.6472 40.1797 68.6102C40.1797 68.6102 40.0688 68.4623 40.0133 68.2404C39.9394 67.9076 39.9024 66.188 39.9209 63.8213C39.5511 63.8213 39.1813 63.8213 38.793 63.8213Z" fill="white"/>
<path d="M34.669 63.9323C33.4302 64.3945 33.1343 65.6888 33.1158 65.7813C33.5041 65.7813 33.8924 65.7628 34.2807 65.7628C34.2807 65.6518 34.2807 65.5039 34.3547 65.3375C34.5766 64.8568 35.2422 64.6349 35.7784 64.7828C36.0188 64.8383 36.2222 64.9862 36.4071 65.1896C36.4995 65.3005 36.7584 65.6149 36.6844 65.8737C36.6105 66.1696 36.1482 66.225 35.612 66.3545C34.632 66.5948 33.4117 66.8907 32.9494 67.6858C32.9125 67.7412 32.6536 68.222 32.783 68.7952C32.9494 69.4793 33.5966 69.7751 33.7075 69.8306C33.9479 69.9416 34.2807 69.9416 34.9833 69.9416C35.4826 69.9416 35.8524 69.9231 36.2961 69.7751C36.6105 69.6642 36.8324 69.5348 36.9988 69.4238C36.9988 69.5902 36.9988 69.7751 37.0173 69.9416C37.3316 69.9416 37.6459 69.9416 37.9788 69.9416C37.9418 68.6842 37.9048 67.4269 37.8678 66.1696C37.8493 65.2636 37.3686 64.4685 36.6105 64.0617C35.686 63.5625 34.7984 63.8768 34.669 63.9323ZM36.7399 67.7597C36.7399 68.7212 35.5565 69.3869 34.5766 69.0171C33.2083 68.4993 34.3177 67.242 36.1482 67.2235C36.6844 67.205 36.7399 67.2605 36.7399 67.7597Z" fill="white"/>
<path d="M28.3078 64.1356C27.2724 64.6903 26.9765 65.7072 26.9026 66.04C26.6622 66.8721 26.8286 67.6117 26.9765 68C27.0875 68.3143 27.2908 68.943 27.8825 69.4052C28.8625 70.1633 30.2123 70.0154 31.0074 69.6271C31.1738 69.5347 31.5621 69.3498 31.9134 68.906C32.1353 68.6102 32.2647 68.3328 32.3202 68.1479C31.9504 68.1479 31.5991 68.1479 31.2292 68.1479C31.1553 68.2774 31.0074 68.5177 30.7485 68.7026C30.2678 69.0354 29.75 68.9985 29.5836 68.98C29.4727 68.9615 28.6221 68.869 28.1784 68.1294C27.9565 67.7781 27.938 67.4268 27.938 67.2419C29.4172 67.2419 30.8964 67.2234 32.3756 67.2234C32.4126 66.8906 32.3941 66.6132 32.3756 66.4098C32.2647 65.3929 31.8024 64.7827 31.6545 64.6348C31.5806 64.5608 31.4142 64.3759 31.1368 64.2095C30.4527 63.8582 29.3248 63.6178 28.3078 64.1356ZM31.1553 66.04C31.1738 66.1325 31.1923 66.2065 31.1923 66.2619C30.1383 66.2619 29.0844 66.2434 28.0489 66.2434C28.0489 66.188 28.0674 66.114 28.1044 66.04C28.2523 65.5593 28.7701 64.8382 29.6206 64.8197C30.4342 64.8197 31.0259 65.4853 31.1553 66.04Z" fill="white"/>
<path d="M24.9247 61.8798C24.9063 62.7304 24.9063 63.5809 24.8878 64.4315C24.7029 64.339 24.4255 64.2096 24.0742 64.0986C23.7599 64.0062 23.2976 63.8768 22.7059 63.9507C22.558 63.9692 22.0958 64.0247 21.652 64.302C20.8754 64.7828 20.4316 65.7258 20.4316 66.9276C20.4316 67.6672 20.5981 68.2774 20.9124 68.7766C21.1712 69.1834 21.4486 69.4053 21.5041 69.4423C21.9293 69.7751 22.3361 69.8676 22.558 69.923C22.7244 69.96 23.9633 70.2189 24.7583 69.5162C24.7953 69.4793 24.8323 69.4608 24.8508 69.4238C24.8693 69.6087 24.8878 69.7751 24.9063 69.96C25.2576 69.96 25.6274 69.96 25.9787 69.96V65.9107V61.8613H25.5534C25.35 61.8798 25.1281 61.8798 24.9247 61.8798ZM24.2591 65.282C24.4995 65.4669 24.6104 65.6703 24.6289 65.7073C24.7583 65.9476 24.7768 66.262 24.7768 66.9276C24.7768 67.9446 24.7029 68.2034 24.3331 68.6102C24.0372 68.9246 23.6859 69.091 23.3161 69.091C22.2622 69.0725 21.726 68.3329 21.726 66.8722C21.726 66.4284 21.7629 66.151 21.8554 65.9292C21.8924 65.8367 22.0218 65.5963 22.2622 65.3745C22.3731 65.2635 22.7244 64.9677 23.2606 64.9492C23.7968 64.9307 24.1482 65.1896 24.2591 65.282Z" fill="white"/>
<path d="M4.25244 61.8429C4.25244 64.5425 4.27093 67.2605 4.27093 69.9601C4.78866 69.9601 5.32487 69.9416 5.84259 69.9416C9.0229 70.071 10.2802 69.3869 10.2802 67.5563C10.2802 67.0941 10.2432 66.8167 10.1323 66.5949C10.0399 66.41 9.92892 66.2805 9.81798 66.1696C9.59609 65.9292 9.37421 65.7628 9.2078 65.6703C9.31874 65.5224 9.48515 65.3005 9.61458 64.9862C9.67005 64.8568 10.0214 63.8768 9.50364 62.9523C9.18931 62.3976 8.70857 62.1387 8.56065 62.0463C8.04292 61.7689 7.61765 61.8244 6.36032 61.8059C5.80561 61.8244 5.10299 61.8244 4.25244 61.8429ZM8.4682 63.5255C8.61612 63.7474 8.70857 64.0247 8.69008 64.2466C8.67159 64.7089 8.24631 65.1341 7.65463 65.3005C6.952 65.2821 6.26787 65.2636 5.56524 65.2636C5.56524 64.487 5.54675 63.7104 5.54675 62.9338C6.15693 62.9523 6.50824 62.9523 6.87804 62.9523C7.50671 62.9708 7.85802 62.9708 8.17235 63.2112C8.33876 63.3406 8.43121 63.4885 8.4682 63.5255ZM8.57914 66.6503C8.81951 66.8722 8.98592 67.2605 8.98592 67.5748C8.98592 68.5178 8.39423 68.8691 6.82257 68.8691H5.47279V67.5748V66.2805H6.82257C7.93198 66.2805 8.24631 66.3545 8.57914 66.6503Z" fill="white"/>
<rect x="-41" y="-28" width="239" height="127" fill="white"/>
</svg>
