<svg width="165" height="119" viewBox="0 0 165 119" fill="none" xmlns="http://www.w3.org/2000/svg">
<path d="M61.4674 19.0458H47.3893C45.837 19.0458 44.5776 17.7789 44.5776 16.2172C44.5776 14.6556 45.837 13.3887 47.3893 13.3887H61.4674C63.0197 13.3887 64.2791 14.6556 64.2791 16.2172C64.2791 17.7789 63.0197 19.0458 61.4674 19.0458Z" fill="white"/>
<path d="M47.1156 19.0458H16.8801C15.3278 19.0458 14.0684 17.7789 14.0684 16.2172C14.0684 14.6556 15.3278 13.3887 16.8801 13.3887H47.1156C48.6679 13.3887 49.9273 14.6556 49.9273 16.2172C49.9273 17.7789 48.6679 19.0458 47.1156 19.0458Z" fill="white"/>
<path d="M34.4338 67.004C32.8815 67.004 31.6221 65.7371 31.6221 64.1754V16.2075C31.6221 14.6459 32.8815 13.3789 34.4338 13.3789C35.9861 13.3789 37.2455 14.6459 37.2455 16.2075V64.1754C37.2455 65.7371 35.9861 67.004 34.4338 67.004Z" fill="white"/>
<path d="M61.1935 67.0021C59.6412 67.0021 58.3818 65.7351 58.3818 64.1735V16.2055C58.3818 14.6439 59.6412 13.377 61.1935 13.377C62.7458 13.377 64.0052 14.6439 64.0052 16.2055V64.1735C64.0052 65.7351 62.7458 67.0021 61.1935 67.0021Z" fill="white"/>
<path d="M73.0549 67.0026H61.2028C59.6505 67.0026 58.3911 65.7356 58.3911 64.174C58.3911 62.6124 59.6505 61.3455 61.2028 61.3455H73.0549C78.1218 61.3455 82.2417 57.2401 82.2417 52.1919C82.2417 50.6302 83.5012 49.3633 85.0535 49.3633C86.6057 49.3633 87.8651 50.6302 87.8651 52.1919C87.8651 60.3633 81.2166 67.0124 73.0451 67.0124L73.0549 67.0026Z" fill="white"/>
<path d="M98.947 67.0021C97.3947 67.0021 96.1353 65.7351 96.1353 64.1735V16.2055C96.1353 14.6439 97.3947 13.377 98.947 13.377C100.499 13.377 101.759 14.6439 101.759 16.2055V64.1735C101.759 65.7351 100.499 67.0021 98.947 67.0021Z" fill="white"/>
<path d="M113.844 55.0198C112.741 55.0198 111.697 54.3618 111.248 53.2716L96.3495 17.2956C95.7539 15.8519 96.4276 14.1921 97.8627 13.5929C99.2978 12.9938 100.948 13.6715 101.543 15.1153L116.441 51.0913C117.037 52.535 116.363 54.1948 114.928 54.7939C114.577 54.9413 114.206 55.01 113.844 55.01V55.0198Z" fill="white"/>
<path d="M113.845 55.0206C113.474 55.0206 113.083 54.942 112.722 54.7849C111.296 54.1563 110.642 52.4965 111.267 51.0527L126.829 15.0768C127.454 13.6428 129.114 12.9848 130.529 13.6134C131.955 14.2419 132.609 15.9018 131.984 17.3455L116.422 53.3215C115.963 54.392 114.928 55.0206 113.835 55.0206H113.845Z" fill="white"/>
<path d="M141.074 79.4164C133.088 79.4164 126.585 72.5806 126.585 64.1735V16.2055C126.585 14.6439 127.845 13.377 129.397 13.377C130.949 13.377 132.209 14.6439 132.209 16.2055V64.1735C132.209 69.369 136.26 73.7494 141.064 73.7494C142.616 73.7494 143.875 75.0164 143.875 76.578C143.875 78.1396 142.616 79.4065 141.064 79.4065L141.074 79.4164Z" fill="white"/>
<path d="M85.0539 54.8906C83.5016 54.8906 82.2422 53.6236 82.2422 52.062C82.2422 47.112 78.093 43.0558 72.9968 43.0263H61.1935C59.6412 43.0263 58.3818 41.7593 58.3818 40.1977C58.3818 38.6361 59.6412 37.3691 61.1935 37.3691H73.0066C81.2074 37.4281 87.8656 44.0183 87.8656 52.0719C87.8656 53.6335 86.6062 54.9004 85.0539 54.9004V54.8906Z" fill="white"/>
<path d="M73.0559 43.028H61.2038C59.6515 43.028 58.3921 41.7611 58.3921 40.1995C58.3921 38.6379 59.6515 37.3709 61.2038 37.3709H73.0559C78.1228 37.3709 82.2427 33.2655 82.2427 28.2075C82.2427 26.6459 83.5021 25.3789 85.0544 25.3789C86.6067 25.3789 87.8661 26.6459 87.8661 28.2075C87.8661 36.3789 81.2176 43.028 73.0461 43.028H73.0559Z" fill="white"/>
<path d="M85.0539 30.9082C83.5016 30.9082 82.2422 29.6412 82.2422 28.0796C82.2422 23.1296 78.093 19.0733 72.9968 19.0439H61.1935C59.6412 19.0439 58.3818 17.7769 58.3818 16.2153C58.3818 14.6537 59.6412 13.3867 61.1935 13.3867H73.0066C81.2074 13.4456 87.8656 20.0358 87.8656 28.0894C87.8656 29.651 86.6062 30.918 85.0539 30.918V30.9082Z" fill="white"/>
<path d="M36.7283 80.2324H35.0295V90.1913C35.0295 90.7708 34.6 91.036 34.1704 91.036C33.7408 91.036 33.3113 90.7708 33.3113 90.1913V80.2324H31.6125C31.0365 80.2324 30.7534 79.8002 30.7534 79.3877C30.7534 78.9752 31.0365 78.5234 31.6125 78.5234H36.7283C37.3043 78.5234 37.5874 78.9556 37.5874 79.3877C37.5874 79.8199 37.3043 80.2324 36.7283 80.2324Z" fill="white"/>
<path d="M46.4223 82.1986C46.4223 83.7405 45.5143 85.0566 44.1475 85.528L46.1879 89.8298C46.2563 89.9771 46.2758 90.095 46.2758 90.203C46.2758 90.6843 45.9146 91.0477 45.3679 91.0477C45.0847 91.0477 44.7919 90.92 44.6357 90.5763L42.3316 85.6852H40.8867V90.203C40.8867 90.7825 40.4767 91.0477 40.0471 91.0477C39.6175 91.0477 39.1685 90.7825 39.1685 90.203V79.3994C39.1685 78.9477 39.5785 78.5352 40.0276 78.5352H42.9369C44.87 78.5352 46.4223 80.0968 46.4223 82.0414V82.2084V82.1986ZM44.704 82.0316C44.704 81.02 43.9718 80.2343 42.9857 80.2343H40.877V83.9762H43.0053C43.9913 83.9762 44.704 83.1807 44.704 82.1986V82.0316Z" fill="white"/>
<path d="M55.57 91.0464C55.2283 91.0464 54.8866 90.8696 54.7499 90.4375L54.0177 88.0607H50.0442L49.3315 90.4375C49.2046 90.8696 48.8336 91.0464 48.4919 91.0464C47.9745 91.0464 47.6133 90.7027 47.6133 90.2509C47.6133 90.1821 47.6328 90.0839 47.6523 89.966L51.0498 79.1035C51.1962 78.6517 51.6258 78.416 52.0358 78.416C52.4459 78.416 52.8755 78.6124 53.0219 79.1035L56.4194 89.966C56.4389 90.0937 56.4584 90.1821 56.4584 90.2312C56.4584 90.7125 56.0972 91.0366 55.5798 91.0366L55.57 91.0464ZM53.4808 86.3517L52.0358 81.5883L50.5909 86.3517H53.4905H53.4808Z" fill="white"/>
<path d="M65.4213 90.2018C65.4213 90.6535 65.0503 91.0464 64.5622 91.0464H64.3669C64.1326 91.0464 63.6835 90.9875 63.4004 90.3294L59.9834 82.5803V90.2018C59.9834 90.7812 59.5734 91.0464 59.1438 91.0464C58.7142 91.0464 58.2651 90.7812 58.2651 90.2018V79.3196C58.2651 78.8383 58.6068 78.416 59.1731 78.416H59.3683C59.5831 78.416 60.0127 78.416 60.2763 79.0446L63.6933 86.7937V79.2803C63.6933 78.7008 64.1033 78.416 64.5329 78.416C64.9624 78.416 65.4115 78.7008 65.4115 79.2803V90.2018H65.4213Z" fill="white"/>
<path d="M71.2011 91.0464H71.0254C69.1509 91.0464 67.54 89.7696 67.54 87.5598C67.54 86.9803 67.9696 86.6955 68.3992 86.6955C68.8287 86.6955 69.2583 86.9803 69.2583 87.5598C69.2583 88.7089 70.01 89.3571 71.0254 89.3571H71.2011C72.2555 89.3571 73.0463 88.7776 73.0463 87.7169C73.0463 85.2026 67.6474 85.183 67.6474 81.9223V81.5982C67.6474 79.6535 69.4145 78.416 71.0449 78.416H71.2109C72.9291 78.416 74.5888 79.3294 74.5888 81.166V81.2741C74.5888 81.7553 74.2471 82.0794 73.7687 82.0794C73.2904 82.0794 72.9779 81.775 72.8706 81.2839C72.6558 80.3116 72.1579 80.1151 71.2109 80.1151H71.0449C70.2541 80.1151 69.3657 80.616 69.3657 81.5V81.8633C69.3657 83.5919 74.7645 83.9848 74.7645 87.7071C74.7645 89.7402 73.2123 91.0366 71.2109 91.0366L71.2011 91.0464Z" fill="white"/>
<path d="M80.641 85.528H78.6006V90.203C78.6006 90.7825 78.171 91.0477 77.7415 91.0477C77.3119 91.0477 76.8823 90.7825 76.8823 90.203V79.3994C76.8823 78.9477 77.2533 78.5352 77.7415 78.5352H80.641C82.5741 78.5352 83.9994 80.0771 83.9994 82.0218C83.9994 83.9664 82.5741 85.528 80.641 85.528ZM80.641 80.2441H78.6006V83.8191H80.641C81.6466 83.8191 82.2812 83.0236 82.2812 82.0218C82.2812 81.02 81.6368 80.2441 80.641 80.2441Z" fill="white"/>
<path d="M92.6493 87.6089C92.6493 89.5732 91.097 91.0464 89.164 91.0464H88.9883C87.0747 91.0464 85.5029 89.5732 85.5029 87.6089V81.8535C85.5029 79.9089 87.0747 78.416 89.0078 78.416H89.1738C91.1068 78.416 92.6591 79.9089 92.6591 81.8535V87.6089H92.6493ZM90.9311 81.8535C90.9311 80.8419 90.1403 80.125 89.164 80.125H88.9883C88.0022 80.125 87.2212 80.8616 87.2212 81.8535V87.6089C87.2212 88.6205 88.012 89.3571 88.9883 89.3571H89.164C90.15 89.3571 90.9311 88.6205 90.9311 87.6089V81.8535Z" fill="white"/>
<path d="M102.413 82.1986C102.413 83.7405 101.505 85.0566 100.138 85.528L102.179 89.8298C102.247 89.9771 102.267 90.095 102.267 90.203C102.267 90.6843 101.905 91.0477 101.359 91.0477C101.075 91.0477 100.783 90.92 100.626 90.5763L98.3223 85.6852H96.8774V90.203C96.8774 90.7825 96.4674 91.0477 96.0378 91.0477C95.6083 91.0477 95.1592 90.7825 95.1592 90.203V79.3994C95.1592 78.9477 95.5692 78.5352 96.0183 78.5352H98.9276C100.861 78.5352 102.413 80.0968 102.413 82.0414V82.2084V82.1986ZM100.695 82.0316C100.695 81.02 99.9625 80.2343 98.9764 80.2343H96.8677V83.9762H98.996C99.982 83.9762 100.695 83.1807 100.695 82.1986V82.0316Z" fill="white"/>
<path d="M109.373 80.2324H107.675V90.1913C107.675 90.7708 107.245 91.036 106.815 91.036C106.386 91.036 105.956 90.7708 105.956 90.1913V80.2324H104.258C103.682 80.2324 103.398 79.8002 103.398 79.3877C103.398 78.9752 103.682 78.5234 104.258 78.5234H109.373C109.949 78.5234 110.232 78.9556 110.232 79.3877C110.232 79.8199 109.949 80.2324 109.373 80.2324Z" fill="white"/>
<path d="M114.86 91.0464H114.685C112.81 91.0464 111.199 89.7696 111.199 87.5598C111.199 86.9803 111.629 86.6955 112.058 86.6955C112.488 86.6955 112.917 86.9803 112.917 87.5598C112.917 88.7089 113.669 89.3571 114.685 89.3571H114.86C115.915 89.3571 116.705 88.7776 116.705 87.7169C116.705 85.2026 111.307 85.183 111.307 81.9223V81.5982C111.307 79.6535 113.074 78.416 114.704 78.416H114.87C116.588 78.416 118.248 79.3294 118.248 81.166V81.2741C118.248 81.7553 117.906 82.0794 117.428 82.0794C116.95 82.0794 116.647 81.775 116.53 81.2839C116.315 80.3116 115.817 80.1151 114.87 80.1151H114.704C113.923 80.1151 113.025 80.616 113.025 81.5V81.8633C113.025 83.5919 118.424 83.9848 118.424 87.7071C118.424 89.7402 116.871 91.0366 114.87 91.0366L114.86 91.0464Z" fill="white"/>
<path d="M36.6885 102.211C36.6885 103.586 35.5756 104.706 34.2088 104.706H32.1976C31.934 104.706 31.6997 104.47 31.6997 104.205V96.1317C31.6997 95.8666 31.934 95.6309 32.1976 95.6309H34.2088C35.6048 95.6309 36.5811 96.6523 36.5811 98.0175C36.5811 99.0193 36.1223 99.7068 35.5658 100.021C36.1125 100.335 36.6885 101.023 36.6885 102.084V102.201V102.211ZM35.5951 98.0273C35.5951 97.1826 35.0288 96.6326 34.2088 96.6326H32.6955V99.53H34.2088C34.9898 99.53 35.5951 98.9112 35.5951 98.0371V98.0273ZM35.7025 102.093C35.7025 101.239 35.0093 100.532 34.2185 100.532H32.7053V103.714H34.2185C35.0386 103.714 35.7025 103.046 35.7025 102.221V102.103V102.093Z" fill="white"/>
<path d="M43.5225 102.3C43.5225 103.695 42.4095 104.785 41.0525 104.785H40.9256C39.5588 104.785 38.4458 103.695 38.4458 102.3V98.0473C38.4458 96.6821 39.5588 95.5625 40.9256 95.5625H41.0525C42.4095 95.5625 43.5225 96.6821 43.5225 98.0473V102.3ZM42.5267 98.0571C42.5267 97.2321 41.8726 96.5643 41.0525 96.5643H40.9256C40.1055 96.5643 39.4416 97.2518 39.4416 98.0473V102.3C39.4416 103.125 40.1055 103.793 40.9256 103.793H41.0525C41.8726 103.793 42.5267 103.125 42.5267 102.3V98.0571Z" fill="white"/>
<path d="M50.835 98.2531C50.835 99.4121 50.1027 100.355 49.0484 100.669L50.669 104.067C50.708 104.136 50.7178 104.215 50.7178 104.293C50.7178 104.568 50.5128 104.775 50.2004 104.775C50.0442 104.775 49.8782 104.706 49.7708 104.5L47.994 100.748H46.6662V104.293C46.6662 104.617 46.4222 104.775 46.1683 104.775C45.9145 104.775 45.6704 104.617 45.6704 104.293V96.1415C45.6704 95.8763 45.9047 95.6406 46.1683 95.6406H48.365C49.7318 95.6406 50.8447 96.7603 50.8447 98.1353V98.2531H50.835ZM49.8391 98.1353C49.8391 97.3103 49.1753 96.6424 48.3552 96.6424H46.6565V99.7558H48.404C49.2241 99.7558 49.8391 99.088 49.8391 98.263V98.1451V98.1353Z" fill="white"/>
<path d="M57.7373 102.211C57.7373 103.586 56.6244 104.706 55.2673 104.706H53.1488C52.8852 104.706 52.6509 104.47 52.6509 104.205V96.1317C52.6509 95.8666 52.8852 95.6309 53.1488 95.6309H55.2673C56.6244 95.6309 57.7373 96.7505 57.7373 98.1157V102.211ZM56.761 98.1255C56.761 97.3005 56.1069 96.6326 55.2868 96.6326H53.6565V103.714H55.2771C56.0972 103.714 56.761 103.046 56.761 102.221V98.1353V98.1255Z" fill="white"/>
<path d="M64.4635 104.706H60.3827C60.1191 104.706 59.8848 104.47 59.8848 104.205V96.1317C59.8848 95.8666 60.1191 95.6309 60.3827 95.6309H64.4635C64.815 95.6309 64.9614 95.8764 64.9614 96.1317C64.9614 96.3871 64.815 96.6326 64.4635 96.6326H60.8708V99.5202H63.3603C63.6825 99.5202 63.8582 99.7657 63.8582 100.021C63.8582 100.276 63.6923 100.522 63.3603 100.522H60.8708V103.714H64.4635C64.815 103.714 64.9614 103.959 64.9614 104.215C64.9614 104.47 64.815 104.716 64.4635 104.716V104.706Z" fill="white"/>
<path d="M71.5613 104.775C71.3661 104.775 71.1708 104.687 71.0927 104.431L70.5167 102.546H67.295L66.7092 104.431C66.6311 104.677 66.4456 104.775 66.2503 104.775C65.9477 104.775 65.7427 104.569 65.7427 104.304C65.7427 104.264 65.7524 104.215 65.772 104.146L68.3201 95.9259C68.3982 95.6804 68.6422 95.5625 68.9058 95.5625C69.1792 95.5625 69.4233 95.6804 69.5014 95.9259L72.0495 104.146C72.0592 104.215 72.0788 104.264 72.0788 104.304C72.0788 104.569 71.8737 104.775 71.5711 104.775H71.5613ZM70.2043 101.544L68.8961 97.3402L67.6074 101.544H70.2043Z" fill="white"/>
<path d="M78.708 102.3C78.708 103.695 77.5951 104.785 76.238 104.785H76.1111C74.7443 104.785 73.6313 103.695 73.6313 102.3V96.0634C73.6313 95.7393 73.8754 95.5625 74.1293 95.5625C74.3831 95.5625 74.6272 95.7295 74.6272 96.0634V102.3C74.6272 103.125 75.291 103.793 76.1111 103.793H76.238C77.0581 103.793 77.7122 103.125 77.7122 102.3V96.0634C77.7122 95.7393 77.9563 95.5625 78.2101 95.5625C78.464 95.5625 78.708 95.7295 78.708 96.0634V102.3Z" fill="white"/>
<path d="M85.6882 104.068C85.8542 104.422 85.6394 104.775 85.2294 104.775C85.0341 104.775 84.8877 104.687 84.7998 104.51L83.1401 101.151L81.4707 104.51C81.3828 104.706 81.2071 104.775 81.0509 104.775C80.6506 104.775 80.4065 104.422 80.5823 104.068L82.5837 100.021L80.7482 96.2795C80.5823 95.9259 80.7971 95.5527 81.2071 95.5527C81.3633 95.5527 81.5488 95.6313 81.6367 95.8277L83.1499 98.9018L84.6631 95.8277C84.751 95.6313 84.9267 95.5527 85.0927 95.5527C85.493 95.5527 85.7175 95.9161 85.5516 96.2795L83.6966 100.021L85.6882 104.068Z" fill="white"/>
<path d="M98.6534 104.294C98.6534 104.618 98.4093 104.775 98.1555 104.775C97.9017 104.775 97.6576 104.618 97.6576 104.294V97.8705L95.9393 101.848C95.8319 102.094 95.6171 102.192 95.3926 102.192C95.1485 102.192 94.9337 102.074 94.8361 101.848L93.0593 97.8705V104.294C93.0593 104.618 92.8152 104.775 92.5614 104.775C92.3075 104.775 92.0635 104.618 92.0635 104.294V96.142C92.0635 95.7884 92.1904 95.5625 92.6492 95.5625H92.6883C93.0398 95.5625 93.1862 95.7491 93.2741 95.9455L95.3633 100.65L97.433 95.9455C97.5209 95.7491 97.6674 95.5625 98.0286 95.5625H98.0676C98.5265 95.5625 98.6436 95.7884 98.6436 96.142V104.294H98.6534Z" fill="white"/>
<path d="M105.575 104.706H101.494C101.231 104.706 100.997 104.47 100.997 104.205V96.132C100.997 95.8669 101.231 95.6311 101.494 95.6311H105.575C105.927 95.6311 106.073 95.8767 106.073 96.132C106.073 96.3874 105.927 96.6329 105.575 96.6329H101.983V99.5204H104.472C104.794 99.5204 104.97 99.766 104.97 100.021C104.97 100.277 104.804 100.522 104.472 100.522H101.983V103.714H105.575C105.927 103.714 106.073 103.96 106.073 104.215C106.073 104.47 105.927 104.716 105.575 104.716V104.706ZM104.716 94.1285L102.812 95.091C102.734 95.1302 102.647 95.1401 102.578 95.1401C102.305 95.1401 102.1 94.8749 102.1 94.6294C102.1 94.4624 102.178 94.2856 102.383 94.1972L104.287 93.2249C104.375 93.1954 104.443 93.1758 104.521 93.1758C104.794 93.1758 104.999 93.441 104.999 93.6963C104.999 93.8633 104.911 94.0401 104.716 94.1285Z" fill="white"/>
<path d="M111.013 96.6326H109.578V104.284C109.578 104.608 109.334 104.765 109.08 104.765C108.826 104.765 108.582 104.608 108.582 104.284V96.6326H107.147C106.825 96.6326 106.649 96.3871 106.649 96.1317C106.649 95.8764 106.815 95.6309 107.147 95.6309H111.013C111.335 95.6309 111.511 95.8764 111.511 96.1317C111.511 96.3871 111.345 96.6326 111.013 96.6326Z" fill="white"/>
<path d="M118.052 98.2531C118.052 99.4121 117.32 100.355 116.265 100.669L117.886 104.067C117.925 104.136 117.935 104.215 117.935 104.293C117.935 104.568 117.73 104.775 117.407 104.775C117.251 104.775 117.085 104.706 116.978 104.5L115.201 100.748H113.873V104.293C113.873 104.617 113.629 104.775 113.375 104.775C113.122 104.775 112.877 104.617 112.877 104.293V96.1415C112.877 95.8763 113.112 95.6406 113.375 95.6406H115.572C116.939 95.6406 118.052 96.7603 118.052 98.1353V98.2531ZM117.056 98.1353C117.056 97.3103 116.392 96.6424 115.572 96.6424H113.873V99.7558H115.621C116.441 99.7558 117.056 99.088 117.056 98.263V98.1451V98.1353Z" fill="white"/>
<path d="M124.75 102.3C124.75 103.695 123.637 104.785 122.28 104.785H122.153C120.786 104.785 119.673 103.695 119.673 102.3V98.0473C119.673 96.6821 120.786 95.5625 122.153 95.5625H122.28C123.637 95.5625 124.75 96.6821 124.75 98.0473V102.3ZM123.754 98.0571C123.754 97.2321 123.1 96.5643 122.28 96.5643H122.153C121.333 96.5643 120.669 97.2518 120.669 98.0473V102.3C120.669 103.125 121.333 103.793 122.153 103.793H122.28C123.1 103.793 123.754 103.125 123.754 102.3V98.0571Z" fill="white"/>
<path d="M129.504 100.6H127.903V104.293C127.903 104.617 127.659 104.775 127.405 104.775C127.151 104.775 126.907 104.617 126.907 104.293V96.1415C126.907 95.8763 127.142 95.6406 127.405 95.6406H129.504C130.871 95.6406 131.984 96.7308 131.984 98.1058C131.984 99.4808 130.871 100.6 129.504 100.6ZM129.504 96.6326H127.903V99.5987H129.504C130.324 99.5987 130.988 98.9308 130.988 98.1058C130.988 97.2808 130.324 96.6326 129.504 96.6326Z" fill="white"/>
<path d="M138.359 102.3C138.359 103.695 137.246 104.785 135.889 104.785H135.762C134.396 104.785 133.283 103.695 133.283 102.3V98.0473C133.283 96.6821 134.396 95.5625 135.762 95.5625H135.889C137.246 95.5625 138.359 96.6821 138.359 98.0473V102.3ZM137.364 98.0571C137.364 97.2321 136.709 96.5643 135.889 96.5643H135.762C134.942 96.5643 134.279 97.2518 134.279 98.0473V102.3C134.279 103.125 134.942 103.793 135.762 103.793H135.889C136.709 103.793 137.364 103.125 137.364 102.3V98.0571Z" fill="white"/>
<path d="M144.568 104.706H141.004C140.741 104.706 140.506 104.471 140.506 104.205V96.0536C140.506 95.7295 140.75 95.5527 141.004 95.5527C141.258 95.5527 141.502 95.7197 141.502 96.0536V103.705H144.568C144.89 103.705 145.066 103.95 145.066 104.205C145.066 104.461 144.9 104.706 144.568 104.706Z" fill="white"/>
<path d="M151.206 104.706H147.125C146.862 104.706 146.627 104.47 146.627 104.205V96.1317C146.627 95.8666 146.862 95.6309 147.125 95.6309H151.206C151.558 95.6309 151.704 95.8764 151.704 96.1317C151.704 96.3871 151.558 96.6326 151.206 96.6326H147.613V99.5202H150.103C150.425 99.5202 150.601 99.7657 150.601 100.021C150.601 100.276 150.435 100.522 150.103 100.522H147.613V103.714H151.206C151.558 103.714 151.704 103.959 151.704 104.215C151.704 104.47 151.558 104.716 151.206 104.716V104.706Z" fill="white"/>
</svg>
