<?xml version="1.0" encoding="UTF-8"?>
<svg id="Calque_1" data-name="Calque 1" xmlns="http://www.w3.org/2000/svg" viewBox="0 0 158.09 70">
  <defs>
    <style>
      .cls-1 {
        fill: #fff;
        stroke-width: 0px;
      }
    </style>
  </defs>
  <path class="cls-1" d="m.06.86c.37.06.92.17,1.52.41,0,0,1.57.22,2.24,1.53.33.65.35,1.61.44,18.34v17.66h3.61l.09-14.88c.09-14.66.09-14.87.43-14.14.2.41,1.05,2.4,1.92,4.44.85,2.03,1.7,4.03,1.89,4.44.18.41,1.11,2.57,2.05,4.81.96,2.24,2.83,6.6,4.16,9.71l2.42,5.64h3.66l.68-1.57c4.01-9.32,8.01-18.66,12.02-27.98-.02,9-.06,17.99-.07,27-.04.2-.11.52-.33.79-.76.94-2.64.89-2.64.89,0,0-.46,0-1.13.02v.48c0,.13.02.26.04.37h11.69c0-.13-.02-.26-.02-.39v-.46c-.17,0-.48.02-.85-.06,0,0-1.66-.02-2.48-1.59-.31-.61-.33-1.87-.33-18.36V.25h-3.85l-.74,1.79c-.8,1.9-1.61,3.79-2.4,5.69-3.72,8.76-7.49,17.49-11.33,26.2-.57-1.2-1.44-3.05-2.48-5.34-2.63-5.79-4.23-9.89-6.19-14.35-1.44-3.29-3.49-8.02-5.95-13.89-2.7-.02-5.4-.04-8.1-.06.02.18.04.37.06.55Z"/>
  <path class="cls-1" d="m88.62.14v.59c.37,0,.91,0,1.53.15.61.13,1.26.28,1.76.72.61.54.8,1.31.8,1.7.04,5.92.06,11.83.09,17.75l.09,17.75h9.36c8.36,0,9.49-.04,10.78-.33,3.9-.92,6.49-3.38,7.47-7.16.41-1.63.43-4.92,0-6.25-.78-2.51-2.89-5.03-5.16-6.23-.59-.31-1.07-.65-1.07-.74.02-.11.39-.46.85-.8,1.07-.8,2.35-2.51,2.85-3.88.26-.65.44-1.66.5-2.66.31-5.16-2.53-8.88-7.77-10.13-.02,0-.33-.07-.65-.15-3.61-.67-14.94-.48-21.43-.33Zm21.86,3.68c1.66.55,2.87,1.55,3.61,2.98.63,1.22.65,1.35.63,3.24,0,1.57-.07,2.16-.41,3-.54,1.37-1.78,2.61-3.14,3.16-1.02.41-1.31.43-7.71.52-3.66.06-6.71.07-6.79.04-.09-.04-.15-3.05-.15-6.71V3.38l6.53.06c5.45.07,6.66.13,7.43.39Zm-4.71,16.27c4.84.07,5.55.18,7.56,1.22,3.35,1.72,4.68,5.99,3.14,10.11-.46,1.24-1.85,2.74-3.03,3.29-1.66.8-2.29.85-9.74.85h-7.17v-7.75c0-4.94.07-7.78.18-7.82.09-.04,1.16-.04,2.35-.02,1.2.04,4.22.07,6.71.11Z"/>
  <path class="cls-1" d="m130.67.14c.04.18.07.37.11.54.68.02,1.28.09,1.72.17,1.26.18,1.55.39,1.74.63.18.24.24.52.26.72.22,2.13-1.05,4.42-1.05,4.42-.67,1.65-1.77,4.49-2.48,6.32-.72,1.83-1.83,4.7-2.5,6.38-.67,1.68-2.5,6.38-4.09,10.45-.67,1.7-1.65,4.36-3.16,8.01-.18.44-.33.81-.44,1.05h3.96c.46-1.09.91-2.2,1.35-3.33.68-1.72,1.33-3.42,1.92-5.08l.81-2.13,9.15-.06c3.11,0,6.21.02,9.32.02,1.29,3.62,2.22,6.29,2.48,7.08.06.18.22.67.11,1.24-.02.09-.06.28-.18.46-.06.09-.3.46-1.05.76-.7.28-1.37.31-1.89.3-.02.24-.02.48-.04.72l5.69.06c1.89.02,3.79.02,5.68.04v-.46c-.04-.13-.06-.24-.09-.37-.07-.02-.28-.04-.5-.09,0,0-2.18-.26-3.37-2.53-.24-.46-10.83-27.29-13.26-33.56-.22-.57-.43-1.16-.65-1.74h-9.56Zm8.97,7.91c.8,2.07,2.51,6.62,3.85,10.13,1.33,3.51,2.44,6.45,2.46,6.56.02.13-2.72.2-7.86.24-4.57.02-7.91-.04-7.91-.13s.5-1.44,1.09-3c2.24-5.86,6.27-16.42,6.58-17.33.04-.11.15-.22.24-.22.07,0,.78,1.68,1.55,3.74Z"/>
  <path class="cls-1" d="m76.46,12.53c-3.51.67-5.71,2.33-6.56,4.96-.94,2.88-.07,5.62,2.26,7.1,1.35.87,3.24,1.44,6.82,2.07,1.68.3,3.53.67,4.1.83,3.74,1.05,4.79,4.2,2.26,6.67-1.29,1.28-2.55,1.7-5.14,1.83-1.55.07-2.27.02-3.22-.24-.83-.22-1.61-.57-2.29-1.04-.59-.41-1.26-1.31-2.59-3.11-.26-.35-.46-.63-.59-.81-.91.39-1.81.78-2.72,1.15.11.37.31.92.65,1.53,2.05,3.77,6.4,4.97,7.16,5.12,3.92.8,8.76-.15,11.02-2.13,2.98-2.63,3.25-7.04.59-9.65-1.65-1.63-3.14-2.18-8.47-3.14-3.7-.67-5.05-1.09-5.9-1.89-1.68-1.55-1.04-4.49,1.24-5.73,2.31-1.26,6.4-1.22,8.51.07.72.44,1.74,1.65,2.61,3.07.24.39.43.74.54.98.44-.15.92-.33,1.41-.52.46-.18.91-.39,1.33-.57-.15-.46-.37-1.05-.74-1.72-.2-.39-.72-1.33-1.5-2.14-1.02-1.07-2.33-1.87-3.96-2.42-1.39-.5-4.92-.65-6.8-.28Z"/>
  <path class="cls-1" d="m44.93,13.12c-.09,4.57-.28,15.55.35,18.77.07.37.17.74.17.74.22.79.96,3.44,3.35,5.08,2.05,1.42,4.27,1.35,5.42,1.31,2.66-.09,4.49-1.18,5.9-2.02.72-.43,1.24-.87,1.68-1.44.41-.54.61-1.05.72-1.39,0,.74,0,1.48-.02,2.22v2.11h3.24V13.08c-1.05.02-2.11.02-3.16.04-.02,1.11-.06,3.2-.07,5.82-.06,6.66-.11,10.28-1.57,13.2-.8,1.59-1.94,2.77-3.38,3.48-.94.46-1.26.52-2.92.52s-1.94-.06-2.94-.55c-1.26-.65-2.07-1.57-2.72-3.14-.43-1.04-.43-1.15-.52-10.19l-.09-9.13c-1.15-.04-2.29-.02-3.42,0Z"/>
  <path class="cls-1" d="m4.25,47.05v4.07h1.2c-.02-2-.02-3.99-.04-5.99.72,2,1.46,3.99,2.18,5.99h1.28c.72-1.96,1.44-3.94,2.18-5.9v2.79l.04,3.11h1.2v-8.17h-1.79c-.78,2.09-1.55,4.18-2.35,6.27-.67-2.09-1.33-4.18-2-6.27-.33,0-.67.02-1,.02h-.91v4.09Z"/>
  <path class="cls-1" d="m27.83,43.06c-.33.37-.67.74-1,1.11h.76c.43-.35.83-.68,1.26-1.04-.33-.02-.67-.04-1.02-.07Z"/>
  <path class="cls-1" d="m13.48,44.98c.02,1.28.02,2.2.02,2.68,0,1.15.02,2.29.55,2.85.31.33.7.48.7.48.26.09.48.11.61.11.8.04,1.55-.37,1.81-.52,0,.18,0,.37-.02.54h1.16c0-1.09,0-2.16.02-3.25l-.06-2.88h-1.07c-.06,1.46-.09,2.92-.15,4.38-.02.07-.06.2-.17.31-.02.04-.11.13-.28.24-.3.18-.59.18-.83.2-.24,0-.41.02-.59-.07-.2-.09-.31-.24-.33-.28,0,0-.11-.15-.17-.37-.07-.33-.11-2.05-.09-4.42h-1.13Z"/>
  <path class="cls-1" d="m20.01,45.37c-.2.13-.61.41-.76.94-.02.07-.15.59.13,1.07.13.24.39.5,2.05,1.11.98.35,1.44.46,1.5.8.04.24-.17.44-.24.52-.57.59-1.89.44-2.24-.17-.06-.11-.09-.22-.09-.3h-1.09c.04.2.13.5.33.8.67.98,1.94.98,2.02.98,1.11,0,2.33-.78,2.42-1.74.04-.43-.15-.78-.18-.83-.13-.22-.37-.5-1.94-1.02-.87-.3-1.44-.43-1.52-.8-.02-.09.02-.18.02-.22.13-.41.74-.59,1.16-.57.72.04,1.15.68,1.18.76h1.02c-.04-.2-.22-.92-.89-1.37-.54-.35-1.07-.33-1.48-.31-.35-.02-.89,0-1.41.35Z"/>
  <path class="cls-1" d="m25.96,45.29c-1.04.55-1.33,1.57-1.41,1.9-.24.83-.07,1.57.07,1.96.11.31.31.94.91,1.41.98.76,2.33.61,3.12.22.17-.09.55-.28.91-.72.22-.3.35-.57.41-.76h-1.09c-.07.13-.22.37-.48.55-.48.33-1,.3-1.16.28-.11-.02-.96-.11-1.41-.85-.22-.35-.24-.7-.24-.89,1.48,0,2.96-.02,4.44-.02.04-.33.02-.61,0-.81-.11-1.02-.57-1.63-.72-1.77-.07-.07-.24-.26-.52-.43-.68-.37-1.81-.59-2.83-.07Zm2.85,1.9c.02.09.04.17.04.22-1.05,0-2.11-.02-3.14-.02,0-.06.02-.13.06-.2.15-.48.67-1.2,1.52-1.22.83,0,1.41.67,1.53,1.22Z"/>
  <path class="cls-1" d="m8.39,52.38c-.02.85-.02,1.7-.04,2.55-.18-.09-.46-.22-.81-.33-.31-.09-.78-.22-1.37-.15-.15.02-.61.07-1.05.35-.78.48-1.22,1.42-1.22,2.63,0,.74.17,1.35.48,1.85.26.41.54.63.59.67.43.33.83.43,1.05.48.17.04,1.41.3,2.2-.41.04-.04.07-.06.09-.09.02.18.04.35.06.54h1.07v-8.1h-.43c-.2.02-.41.02-.63.02Zm-.65,3.4c.24.18.35.39.37.43.13.24.15.55.15,1.22,0,1.02-.07,1.28-.44,1.68-.3.31-.65.48-1.02.48-1.05-.02-1.59-.76-1.59-2.22,0-.44.04-.72.13-.94.04-.09.17-.33.41-.55.11-.11.46-.41,1-.43.52-.02.89.24,1,.33Z"/>
  <path class="cls-1" d="m25.22,52.39c0,2.7.02,5.42.02,8.12.52,0,1.05-.02,1.57-.02,3.18.13,4.44-.55,4.44-2.39,0-.46-.04-.74-.15-.96-.09-.18-.2-.31-.31-.43-.22-.24-.44-.41-.61-.5.11-.15.28-.37.41-.68.06-.13.41-1.11-.11-2.03-.31-.55-.8-.81-.94-.91-.52-.28-.94-.22-2.2-.24-.55,0-1.26,0-2.11.04Zm4.22,1.68c.15.22.24.5.22.72-.02.46-.44.89-1.04,1.05-.7-.02-1.39-.04-2.09-.04,0-.78-.02-1.55-.02-2.33.61.02.96.02,1.33.02.63.02.98.02,1.29.26.17.13.26.26.3.31Zm.11,3.12c.24.22.41.61.41.92,0,.94-.59,1.29-2.16,1.29h-1.35v-2.59h1.35c1.11,0,1.42.07,1.76.37Z"/>
  <path class="cls-1" d="m60.94,56.41c-.5,1.39-1,2.75-1.46,4.1h1.24c.22-.59.46-1.18.68-1.78,1.11-.02,2.22-.04,3.31-.06.28.61.55,1.24.81,1.85h1.31c-.06-.17-.5-1.33-.55-1.48-.13-.33-.83-2.22-1.02-2.75-.33-.89-.81-2.2-1.44-3.88h-1.41c-.48,1.29-.98,2.63-1.48,3.99Zm3.49,1.11h-2.63c.44-1.11.91-2.2,1.35-3.31.43,1.11.85,2.2,1.28,3.31Z"/>
  <path class="cls-1" d="m71.37,54.43h-.91c-.41,0-1.09.04-1.74.44-.15.09-.26.18-.37.28-.02-.26-.04-.54-.07-.8h-.96c-.02,2.05-.02,4.1-.04,6.16h1.04c.02-.55.04-1.15.04-1.74,0-.28-.11-1.24-.06-2.2.02-.13.02-.33.15-.55.22-.35.59-.48.85-.57.26-.09.54-.09,1.07-.13.17,0,.39-.02.65.07h.02c.26.09.3.46.3,2.33,0,1.59.02,2.05.18,2.29.09.13.26.22.26.22.39.26.81.26,1.07.26.18,0,.46-.02.79-.13-.02-.28-.04-.55-.06-.85-.06.04-.2.11-.37.11,0,0-.18,0-.35-.13-.33-.26-.43-.91-.39-2.35,0-.61.02-1.22.02-1.83.37,0,.72-.02,1.09-.02v-.83c-.18,0-.35-.02-.54-.02-.22-.02-.43-.02-.65-.04v-1.39h-1.02c.02.48,0,.94-.02,1.41Z"/>
  <path class="cls-1" d="m39.72,54.52c-1.24.46-1.53,1.76-1.55,1.85.39,0,.78-.02,1.16-.02,0-.11,0-.26.07-.43.22-.48.89-.7,1.42-.55.24.06.44.2.63.41.09.11.35.43.28.68-.07.3-.54.35-1.07.48-.98.24-2.2.54-2.66,1.33-.04.06-.3.54-.17,1.11.17.68.81.98.92,1.04.24.11.57.11,1.28.11.5,0,.87-.02,1.31-.17.31-.11.54-.24.7-.35,0,.17,0,.35.02.52h.96c-.04-1.26-.07-2.51-.11-3.77-.02-.91-.5-1.7-1.26-2.11-.91-.5-1.79-.18-1.94-.13Zm2.07,3.81c0,.96-1.18,1.63-2.16,1.26-1.37-.52-.26-1.77,1.57-1.79.54-.02.59.04.59.54Z"/>
  <path class="cls-1" d="m49.31,54.35c.65,1.02,1.29,2.02,1.94,3.03-.65,1.04-1.29,2.09-1.94,3.12h1c.55-.7,1.09-1.42,1.65-2.13.52.7,1.04,1.42,1.53,2.13h1.11c-.61-1.05-1.22-2.11-1.83-3.14.61-1,1.22-2,1.83-3h-1.05c-.54.7-1.07,1.39-1.61,2.09-.52-.68-1.02-1.39-1.53-2.07-.35-.02-.72-.02-1.09-.04Z"/>
  <path class="cls-1" d="m54.44,56.89v1.02c1.61.02,3.22.02,4.84.04,0-.33-.02-.68-.02-1.02-1.61-.02-3.22-.02-4.83-.04Z"/>
  <path class="cls-1" d="m12.46,64.06c-1.29.55-1.63,2.09-1.65,2.22-.26,1.61.46,2.96,1.85,3.46,1.48.55,3-.06,3.64-1.48.67-1.48,0-3.46-1.22-4.1-.55-.3-1.24-.31-1.33-.31-.2,0-.76,0-1.29.22Zm2.07,1c.06.04.28.18.52.55.11.18.5.81.39,1.53-.15.94-1.11,1.87-2,1.74-.55-.09-.89-.55-1.04-.76-.55-.76-.7-2.02,0-2.76.04-.04.57-.59,1.33-.57.11.02.44.04.8.26Z"/>
  <path class="cls-1" d="m17.27,63.84c0,2.05,0,4.09.02,6.14h1.13c-.06-.7-.07-1.48-.07-2.27,0-.72.02-1.39.07-2.03.06-.11.18-.28.39-.43.33-.24.67-.24.8-.24.41-.02.7.15.85.22,0-.28,0-.54.02-.81-.13-.09-.48-.3-.96-.28-.72.04-1.15.54-1.22.63.02-.31.02-.63.04-.92h-1.05Z"/>
  <path class="cls-1" d="m32.1,45.29c-1.04.55-1.33,1.57-1.41,1.9-.24.83-.07,1.57.07,1.96.11.31.31.94.91,1.41.98.76,2.33.61,3.12.22.17-.09.55-.28.91-.72.22-.3.35-.57.41-.76h-1.09c-.07.13-.22.37-.48.55-.48.33-1,.3-1.16.28-.11-.02-.96-.11-1.41-.85-.22-.35-.24-.7-.24-.89,1.48,0,2.96-.02,4.44-.02.04-.33.02-.61,0-.81-.11-1.02-.57-1.63-.72-1.77-.07-.07-.24-.26-.52-.43-.68-.37-1.81-.59-2.83-.07Zm2.85,1.9c.02.09.04.17.04.22-1.05,0-2.11-.02-3.14-.02,0-.06.02-.13.06-.2.15-.48.67-1.2,1.52-1.22.83,0,1.41.67,1.53,1.22Z"/>
  <path class="cls-1" d="m11.44,54.74c-1.04.55-1.33,1.57-1.41,1.9-.24.83-.07,1.57.07,1.96.11.31.31.94.91,1.41.98.76,2.33.61,3.12.22.17-.09.55-.28.91-.72.22-.3.35-.57.41-.76h-1.09c-.07.13-.22.37-.48.55-.48.33-1,.3-1.16.28-.11-.02-.96-.11-1.41-.85-.22-.35-.24-.7-.24-.89,1.48,0,2.96-.02,4.44-.02.04-.33.02-.61,0-.81-.11-1.02-.57-1.63-.72-1.78-.07-.07-.24-.26-.52-.43-.68-.37-1.81-.61-2.83-.07Zm2.85,1.89c.02.09.04.17.04.22-1.05,0-2.11-.02-3.14-.02,0-.06.02-.13.06-.2.15-.48.67-1.2,1.52-1.22.83,0,1.41.68,1.53,1.22Z"/>
  <path class="cls-1" d="m33.25,54.72c-1.04.55-1.33,1.57-1.41,1.9-.24.83-.07,1.57.07,1.96.11.31.31.94.91,1.41.98.76,2.33.61,3.12.22.17-.09.55-.28.91-.72.22-.3.35-.57.41-.76h-1.09c-.07.13-.22.37-.48.55-.48.33-1,.3-1.16.28-.11-.02-.96-.11-1.41-.85-.22-.35-.24-.7-.24-.89,1.48,0,2.96-.02,4.44-.02.04-.33.02-.61,0-.81-.11-1.02-.57-1.63-.72-1.78-.07-.07-.24-.26-.52-.43-.68-.37-1.83-.61-2.83-.07Zm2.85,1.89c.02.09.04.17.04.22-1.05,0-2.11-.02-3.14-.02,0-.06.02-.13.06-.2.15-.48.67-1.2,1.52-1.22.81,0,1.39.68,1.53,1.22Z"/>
  <path class="cls-1" d="m16.88,54.74c-.2.13-.61.41-.76.94-.02.07-.15.59.13,1.07.13.24.39.5,2.05,1.11.98.35,1.44.46,1.5.8.04.24-.17.44-.24.52-.57.59-1.89.44-2.24-.17-.06-.11-.09-.22-.09-.3h-1.09c.04.2.13.5.33.8.67.98,1.94.98,2.02.98,1.11,0,2.33-.78,2.42-1.74.04-.43-.15-.78-.18-.83-.13-.22-.37-.5-1.94-1.02-.87-.3-1.44-.43-1.52-.8-.02-.09.02-.18.02-.22.13-.41.74-.59,1.16-.57.72.04,1.15.68,1.18.76h1.02c-.04-.2-.22-.92-.89-1.37-.54-.35-1.07-.33-1.48-.31-.35-.02-.89,0-1.41.35Z"/>
  <path class="cls-1" d="m74.92,54.74c-.2.13-.61.41-.76.94-.02.07-.15.59.13,1.07.13.24.39.5,2.05,1.11.98.35,1.44.46,1.5.8.04.24-.17.44-.24.52-.57.59-1.89.44-2.24-.17-.06-.11-.09-.22-.09-.3h-1.09c.04.2.13.5.33.8.67.98,1.94.98,2.02.98,1.11,0,2.33-.78,2.42-1.74.04-.43-.15-.78-.18-.83-.13-.22-.37-.5-1.94-1.02-.87-.3-1.44-.43-1.52-.8-.02-.09.02-.18.02-.22.13-.41.74-.59,1.16-.57.72.04,1.15.68,1.18.76h1.02c-.04-.2-.22-.92-.89-1.37-.54-.35-1.07-.33-1.48-.31-.35-.02-.89,0-1.41.35Z"/>
  <path class="cls-1" d="m43.86,54.37c.02,1.28.02,2.2.02,2.68,0,1.15.02,2.29.55,2.85.31.33.7.48.7.48.26.09.48.11.61.11.8.04,1.55-.37,1.81-.52,0,.18,0,.37-.02.54h1.16c0-1.09,0-2.16.02-3.25l-.06-2.88h-1.07c-.06,1.46-.09,2.92-.15,4.38-.02.07-.06.2-.17.31-.02.04-.11.13-.28.24-.3.18-.59.18-.83.2-.24,0-.41.02-.59-.07-.2-.09-.31-.24-.33-.28,0,0-.11-.15-.17-.37-.07-.33-.11-2.05-.09-4.42h-1.13Z"/>
  <path class="cls-1" d="m44.32,63.82c.65,1.02,1.29,2.02,1.94,3.03-.65,1.04-1.29,2.09-1.94,3.12h1c.55-.7,1.09-1.42,1.65-2.13.52.7,1.04,1.42,1.53,2.13h1.11c-.61-1.05-1.22-2.11-1.83-3.14.61-1,1.22-2,1.83-3h-1.05c-.54.7-1.07,1.39-1.61,2.09-.52-.68-1.02-1.39-1.53-2.07-.33-.02-.7-.04-1.09-.04Z"/>
  <path class="cls-1" d="m38.79,63.82c.02,1.28.02,2.2.02,2.68,0,1.15.02,2.29.55,2.85.31.33.7.48.7.48.26.09.48.11.61.11.79.04,1.55-.37,1.81-.52,0,.18,0,.37-.02.54h1.16c0-1.09,0-2.16.02-3.25l-.06-2.88h-1.07c-.06,1.46-.09,2.92-.15,4.38-.02.07-.06.2-.17.31-.02.04-.11.13-.28.24-.3.18-.59.18-.83.2-.24,0-.41.02-.59-.07-.2-.09-.31-.24-.33-.28,0,0-.11-.15-.17-.37-.07-.33-.11-2.05-.09-4.42h-1.13Z"/>
  <path class="cls-1" d="m34.67,63.93c-1.24.46-1.53,1.76-1.55,1.85.39,0,.78-.02,1.16-.02,0-.11,0-.26.07-.43.22-.48.89-.7,1.42-.55.24.06.44.2.63.41.09.11.35.43.28.68-.07.3-.54.35-1.07.48-.98.24-2.2.54-2.66,1.33-.04.06-.3.54-.17,1.11.17.68.81.98.92,1.04.24.11.57.11,1.28.11.5,0,.87-.02,1.31-.17.31-.11.54-.24.7-.35,0,.17,0,.35.02.52h.96c-.04-1.26-.07-2.51-.11-3.77-.02-.91-.5-1.7-1.26-2.11-.92-.5-1.81-.18-1.94-.13Zm2.07,3.83c0,.96-1.18,1.63-2.16,1.26-1.37-.52-.26-1.78,1.57-1.79.54-.02.59.04.59.54Z"/>
  <path class="cls-1" d="m28.31,64.14c-1.04.55-1.33,1.57-1.41,1.9-.24.83-.07,1.57.07,1.96.11.31.31.94.91,1.41.98.76,2.33.61,3.12.22.17-.09.55-.28.91-.72.22-.3.35-.57.41-.76h-1.09c-.07.13-.22.37-.48.55-.48.33-1,.3-1.16.28-.11-.02-.96-.11-1.41-.85-.22-.35-.24-.7-.24-.89,1.48,0,2.96-.02,4.44-.02.04-.33.02-.61,0-.81-.11-1.02-.57-1.63-.72-1.78-.07-.07-.24-.26-.52-.43-.68-.35-1.81-.59-2.83-.07Zm2.85,1.9c.02.09.04.17.04.22-1.05,0-2.11-.02-3.14-.02,0-.06.02-.13.06-.2.15-.48.67-1.2,1.52-1.22.81,0,1.41.67,1.53,1.22Z"/>
  <path class="cls-1" d="m24.92,61.88c-.02.85-.02,1.7-.04,2.55-.18-.09-.46-.22-.81-.33-.31-.09-.78-.22-1.37-.15-.15.02-.61.07-1.05.35-.78.48-1.22,1.42-1.22,2.63,0,.74.17,1.35.48,1.85.26.41.54.63.59.67.43.33.83.43,1.05.48.17.04,1.41.3,2.2-.41.04-.04.07-.06.09-.09.02.18.04.35.06.54h1.07v-8.1h-.43c-.2.02-.43.02-.63.02Zm-.67,3.4c.24.18.35.39.37.43.13.24.15.55.15,1.22,0,1.02-.07,1.28-.44,1.68-.3.31-.65.48-1.02.48-1.05-.02-1.59-.76-1.59-2.22,0-.44.04-.72.13-.94.04-.09.17-.33.41-.55.11-.11.46-.41,1-.43.54-.02.89.24,1,.33Z"/>
  <path class="cls-1" d="m4.25,61.84c0,2.7.02,5.42.02,8.12.52,0,1.05-.02,1.57-.02,3.18.13,4.44-.55,4.44-2.39,0-.46-.04-.74-.15-.96-.09-.18-.2-.31-.31-.43-.22-.24-.44-.41-.61-.5.11-.15.28-.37.41-.68.06-.13.41-1.11-.11-2.03-.31-.55-.8-.81-.94-.91-.52-.28-.94-.22-2.2-.24-.55.02-1.26.02-2.11.04Zm4.22,1.68c.15.22.24.5.22.72-.02.46-.44.89-1.04,1.05-.7-.02-1.39-.04-2.09-.04,0-.78-.02-1.55-.02-2.33.61.02.96.02,1.33.02.63.02.98.02,1.29.26.17.13.26.28.3.31Zm.11,3.12c.24.22.41.61.41.92,0,.94-.59,1.29-2.16,1.29h-1.35v-2.59h1.35c1.11,0,1.42.07,1.76.37Z"/>
</svg>